<svg id="visual" viewBox="0 0 900 600" width="900" height="600" xmlns="http://www.w3.org/2000/svg" xmlns:xlink="http://www.w3.org/1999/xlink" version="1.1"><path d="M0 263L37.5 289.5C75 316 150 369 225 360.2C300 351.3 375 280.7 450 252.2C525 223.7 600 237.3 675 268.8C750 300.3 825 349.7 862.5 374.3L900 399L900 601L862.5 601C825 601 750 601 675 601C600 601 525 601 450 601C375 601 300 601 225 601C150 601 75 601 37.5 601L0 601Z" fill="#4c34b3" stroke-linecap="round" stroke-linejoin="miter"></path></svg>